<svg xmlns="http://www.w3.org/2000/svg" version="1.1" xmlns:xlink="http://www.w3.org/1999/xlink" xmlns:svgjs="http://svgjs.dev/svgjs" width="48" height="48"><svg width="48" height="48" viewBox="0 0 48 48" fill="none" xmlns="http://www.w3.org/2000/svg">
<path fill-rule="evenodd" clip-rule="evenodd" d="M28.0679 12.2792C29.1479 13.3503 29.7496 14.7971 29.7496 16.3V19.55C29.7496 19.8261 29.9735 20.05 30.2496 20.05L35.8496 20.05C36.1257 20.05 36.3496 19.8261 36.3496 19.55L36.3496 16.3C36.3496 13.029 35.0391 9.89747 32.7154 7.59292C30.3925 5.28929 27.2479 4 23.9746 4C20.7014 4 17.5567 5.28929 15.2339 7.59292C14.0835 8.73382 13.1694 10.0898 12.5453 11.584C11.9212 13.0784 11.5996 14.6809 11.5996 16.3V19.55C11.5996 19.8261 11.8235 20.05 12.0996 20.05H17.6996C17.9758 20.05 18.1996 19.8261 18.1996 19.55V16.3C18.1996 15.5553 18.3475 14.8172 18.6355 14.1277C18.9235 13.4381 19.3464 12.8097 19.8814 12.2792C20.9623 11.2071 22.4342 10.6 23.9746 10.6C25.515 10.6 26.9869 11.2071 28.0679 12.2792ZM36.3496 28.45C36.3496 28.1739 36.1257 27.95 35.8496 27.95L30.2496 27.95C29.9735 27.95 29.7496 28.1739 29.7496 28.45V31.7C29.7496 32.4447 29.6017 33.1828 29.3137 33.8723C29.0257 34.5619 28.6028 35.1903 28.0679 35.7208C27.5328 36.2515 26.8962 36.6738 26.1935 36.9624C25.4908 37.2511 24.7368 37.4 23.9746 37.4C23.2124 37.4 22.4584 37.2511 21.7557 36.9624C21.0531 36.6738 20.4164 36.2515 19.8814 35.7208C19.3464 35.1903 18.9235 34.5619 18.6355 33.8723C18.3475 33.1828 18.1996 32.4447 18.1996 31.7V28.45C18.1996 28.1739 17.9758 27.95 17.6996 27.95H12.0996C11.8235 27.95 11.5996 28.1739 11.5996 28.45V31.7C11.5996 33.3191 11.9212 34.9217 12.5453 36.416C13.1694 37.9102 14.0835 39.2662 15.2339 40.4071C16.3842 41.5479 17.7484 42.4515 19.2478 43.0674C20.7472 43.6833 22.3533 44 23.9746 44C25.5959 44 27.202 43.6833 28.7014 43.0674C30.2008 42.4515 31.565 41.5479 32.7153 40.4071C33.8658 39.2662 34.7798 37.9102 35.4039 36.416C36.028 34.9217 36.3496 33.3191 36.3496 31.7V28.45ZM23.9996 28C26.2087 28 27.9996 26.2091 27.9996 24C27.9996 21.7909 26.2087 20 23.9996 20C21.7905 20 19.9996 21.7909 19.9996 24C19.9996 26.2091 21.7905 28 23.9996 28Z" fill="black"></path>
</svg><style>@media (prefers-color-scheme: light) { :root { filter: none; } }
@media (prefers-color-scheme: dark) { :root { filter: none; } }
</style></svg>