<svg xmlns="http://www.w3.org/2000/svg" version="1.1" xmlns:xlink="http://www.w3.org/1999/xlink" xmlns:svgjs="http://svgjs.dev/svgjs" width="48" height="48"><svg width="48" height="48" viewBox="0 0 48 48" fill="none" xmlns="http://www.w3.org/2000/svg">
<path fill-rule="evenodd" clip-rule="evenodd" d="M27.0514 15.2094C27.8614 16.0127 28.3127 17.0979 28.3127 18.225V20.5375C28.3127 20.8136 28.5366 21.0375 28.8127 21.0375H32.7627C33.0388 21.0375 33.2627 20.8136 33.2627 20.5375V18.225C33.2627 15.7717 32.2798 13.4231 30.537 11.6947C28.7949 9.96697 26.4364 9 23.9814 9C21.5265 9 19.168 9.96697 17.4259 11.6947C16.5631 12.5504 15.8776 13.5673 15.4095 14.688C14.9414 15.8088 14.7002 17.0107 14.7002 18.225V20.5375C14.7002 20.8136 14.9241 21.0375 15.2002 21.0375L19.1502 21.0375C19.4263 21.0375 19.6502 20.8136 19.6502 20.5375L19.6502 18.225C19.6502 17.6665 19.7611 17.1129 19.9771 16.5958C20.1931 16.0786 20.5103 15.6073 20.9115 15.2094C21.7222 14.4053 22.8261 13.95 23.9814 13.95C25.1368 13.95 26.2407 14.4053 27.0514 15.2094ZM33.2627 27.4625C33.2627 27.1864 33.0388 26.9625 32.7627 26.9625H28.8127C28.5366 26.9625 28.3127 27.1864 28.3127 27.4625L28.3127 29.775C28.3127 30.3335 28.2018 30.8871 27.9858 31.4042C27.7698 31.9214 27.4526 32.3927 27.0514 32.7906C26.6501 33.1886 26.1726 33.5054 25.6456 33.7218C25.1186 33.9383 24.5531 34.05 23.9814 34.05C23.4098 34.05 22.8443 33.9383 22.3173 33.7218C21.7903 33.5053 21.3128 33.1886 20.9115 32.7906C20.5103 32.3927 20.1931 31.9214 19.9771 31.4042C19.7611 30.8871 19.6502 30.3335 19.6502 29.775L19.6502 27.4625C19.6502 27.1864 19.4263 26.9625 19.1502 26.9625H15.2002C14.9241 26.9625 14.7002 27.1864 14.7002 27.4625V29.775C14.7002 30.9893 14.9414 32.1912 15.4095 33.312C15.8776 34.4327 16.5631 35.4496 17.4259 36.3053C18.2886 37.1609 19.3118 37.8386 20.4364 38.3006C21.5609 38.7625 22.7655 39 23.9814 39C25.1974 39 26.402 38.7625 27.5265 38.3006C28.6511 37.8386 29.6742 37.1609 30.537 36.3053C31.3998 35.4496 32.0853 34.4327 32.5534 33.312C33.0215 32.1912 33.2627 30.9893 33.2627 29.775V27.4625ZM24.0002 27C25.6571 27 27.0002 25.6569 27.0002 24C27.0002 22.3431 25.6571 21 24.0002 21C22.3433 21 21.0002 22.3431 21.0002 24C21.0002 25.6569 22.3433 27 24.0002 27Z" fill="black"></path>
</svg><style>@media (prefers-color-scheme: light) { :root { filter: none; } }
@media (prefers-color-scheme: dark) { :root { filter: none; } }
</style></svg>